<svg width="16" height="17" viewBox="0 0 16 17" fill="none" xmlns="http://www.w3.org/2000/svg">
<mask id="mask0_68_283" style="mask-type:alpha" maskUnits="userSpaceOnUse" x="0" y="0" width="16" height="17">
<rect y="0.5" width="16" height="16" fill="#D9D9D9"/>
</mask>
<g mask="url(#mask0_68_283)">
<path d="M8.00002 13.5333C7.8778 13.5333 7.75847 13.5167 7.64202 13.4833C7.52513 13.45 7.41669 13.4055 7.31669 13.35C6.86113 13.0722 6.38335 12.8611 5.88335 12.7167C5.38335 12.5722 4.86669 12.5 4.33335 12.5C3.86669 12.5 3.40846 12.5611 2.95869 12.6833C2.50846 12.8055 2.0778 12.9778 1.66669 13.2C1.43335 13.3222 1.20846 13.3167 0.99202 13.1833C0.775131 13.05 0.666687 12.8555 0.666687 12.6V4.56666C0.666687 4.44443 0.697354 4.32777 0.758687 4.21666C0.819576 4.10555 0.911131 4.02221 1.03335 3.96666C1.54446 3.69999 2.0778 3.49999 2.63335 3.36666C3.18891 3.23332 3.75558 3.16666 4.33335 3.16666C4.9778 3.16666 5.60847 3.24999 6.22535 3.41666C6.8418 3.58332 7.43335 3.83332 8.00002 4.16666V12.2333C8.56669 11.8778 9.16113 11.6111 9.78335 11.4333C10.4056 11.2555 11.0334 11.1667 11.6667 11.1667C12.0667 11.1667 12.4585 11.2 12.842 11.2667C13.2251 11.3333 13.6111 11.4333 14 11.5667V3.56666C14.1667 3.62221 14.3307 3.68043 14.492 3.74132C14.6529 3.80266 14.8111 3.87777 14.9667 3.96666C15.0889 4.02221 15.1807 4.10555 15.242 4.21666C15.3029 4.32777 15.3334 4.44443 15.3334 4.56666V12.6C15.3334 12.8555 15.2251 13.05 15.0087 13.1833C14.7918 13.3167 14.5667 13.3222 14.3334 13.2C13.9222 12.9778 13.4916 12.8055 13.0414 12.6833C12.5916 12.5611 12.1334 12.5 11.6667 12.5C11.1334 12.5 10.6167 12.5722 10.1167 12.7167C9.61669 12.8611 9.13891 13.0722 8.68335 13.35C8.58335 13.4055 8.47513 13.45 8.35869 13.4833C8.2418 13.5167 8.12224 13.5333 8.00002 13.5333ZM9.88335 9.99999C9.77224 10.1 9.65291 10.1193 9.52535 10.058C9.39735 9.9971 9.33335 9.89443 9.33335 9.74999V4.29999C9.33335 4.27777 9.36669 4.19999 9.43335 4.06666L12.1 1.39999C12.2111 1.28888 12.3334 1.2611 12.4667 1.31666C12.6 1.37221 12.6667 1.47777 12.6667 1.63332V7.34999C12.6667 7.39443 12.6278 7.47777 12.55 7.59999L9.88335 9.99999Z" fill="#2684FF"/>
</g>
</svg>
