<svg width="16" height="17" viewBox="0 0 16 17" fill="none" xmlns="http://www.w3.org/2000/svg">
<mask id="mask0_252_525" style="mask-type:alpha" maskUnits="userSpaceOnUse" x="0" y="0" width="16" height="17">
<rect y="0.5" width="16" height="16" fill="#D9D9D9"/>
</mask>
<g mask="url(#mask0_252_525)">
<path d="M1.33331 9.16665V5.83331C1.33331 5.46665 1.46398 5.15287 1.72531 4.89198C1.9862 4.63065 2.29998 4.49998 2.66665 4.49998H5.33331V3.16665C5.33331 2.79998 5.46398 2.48598 5.72531 2.22465C5.9862 1.96376 6.29998 1.83331 6.66665 1.83331H9.33331C9.69998 1.83331 10.014 1.96376 10.2753 2.22465C10.5362 2.48598 10.6666 2.79998 10.6666 3.16665V4.49998H13.3333C13.7 4.49998 14.014 4.63065 14.2753 4.89198C14.5362 5.15287 14.6666 5.46665 14.6666 5.83331V9.16665H9.99998V8.49998C9.99998 8.31109 9.9362 8.15265 9.80865 8.02465C9.68065 7.89709 9.5222 7.83331 9.33331 7.83331H6.66665C6.47776 7.83331 6.31953 7.89709 6.19198 8.02465C6.06398 8.15265 5.99998 8.31109 5.99998 8.49998V9.16665H1.33331ZM6.66665 4.49998H9.33331V3.16665H6.66665V4.49998ZM7.33331 10.5V9.16665H8.66665V10.5H7.33331ZM2.66665 14.5C2.29998 14.5 1.9862 14.3695 1.72531 14.1086C1.46398 13.8473 1.33331 13.5333 1.33331 13.1666V10.5H5.99998V11.1666C5.99998 11.3555 6.06398 11.5138 6.19198 11.6413C6.31953 11.7693 6.47776 11.8333 6.66665 11.8333H9.33331C9.5222 11.8333 9.68065 11.7693 9.80865 11.6413C9.9362 11.5138 9.99998 11.3555 9.99998 11.1666V10.5H14.6666V13.1666C14.6666 13.5333 14.5362 13.8473 14.2753 14.1086C14.014 14.3695 13.7 14.5 13.3333 14.5H2.66665Z" fill="#2684FF"/>
</g>
</svg>
