<svg width="16" height="17" viewBox="0 0 16 17" fill="none" xmlns="http://www.w3.org/2000/svg">
<path d="M6.92444 12.3133C7.27111 12.66 7.83111 12.66 8.17778 12.3133L11.3689 9.12222C11.7156 8.77556 11.7156 8.21556 11.3689 7.86889L8.17778 4.67778C7.83111 4.33111 7.27111 4.33111 6.92444 4.67778C6.57778 5.02444 6.57778 5.58444 6.92444 5.93111L8.59556 7.61111H0.888889C0.4 7.61111 0 8.01111 0 8.5C0 8.98889 0.4 9.38889 0.888889 9.38889H8.59556L6.92444 11.06C6.57778 11.4067 6.58667 11.9756 6.92444 12.3133ZM14.2222 0.5H1.77778C0.791111 0.5 0 1.3 0 2.27778V4.94444C0 5.43333 0.4 5.83333 0.888889 5.83333C1.37778 5.83333 1.77778 5.43333 1.77778 4.94444V3.16667C1.77778 2.67778 2.17778 2.27778 2.66667 2.27778H13.3333C13.8222 2.27778 14.2222 2.67778 14.2222 3.16667V13.8333C14.2222 14.3222 13.8222 14.7222 13.3333 14.7222H2.66667C2.17778 14.7222 1.77778 14.3222 1.77778 13.8333V12.0556C1.77778 11.5667 1.37778 11.1667 0.888889 11.1667C0.4 11.1667 0 11.5667 0 12.0556V14.7222C0 15.7 0.8 16.5 1.77778 16.5H14.2222C15.2 16.5 16 15.7 16 14.7222V2.27778C16 1.3 15.2 0.5 14.2222 0.5Z" fill="white"/>
</svg>
